<svg width="287" height="271" viewBox="0 0 287 271" fill="none" xmlns="http://www.w3.org/2000/svg">
<g filter="url(#filter0_d_260_438)">
<path d="M176.44 23.5259C178.529 16.1655 174.285 8.42181 166.753 7.07229C145.456 3.2561 123.486 4.71421 102.755 11.417C77.619 19.5438 55.4343 35.0155 39.0056 55.8756C22.5769 76.7357 12.6422 102.047 10.4578 128.61C8.27345 155.172 13.9375 181.792 26.7336 205.103C39.5298 228.414 58.8833 247.37 82.3469 259.573C105.811 271.776 132.33 276.678 158.553 273.66C184.775 270.642 209.522 259.838 229.665 242.616C246.337 228.361 259.234 210.239 267.309 189.889C270.107 182.836 265.827 175.199 258.538 173.089C251.196 170.963 243.606 175.264 240.591 182.288C234.141 197.318 224.331 210.71 211.858 221.375C195.875 235.04 176.239 243.613 155.432 246.008C134.625 248.403 113.582 244.513 94.9642 234.83C76.3463 225.147 60.9896 210.106 50.8362 191.609C40.6827 173.112 36.1884 151.99 37.9217 130.913C39.655 109.836 47.5379 89.7523 60.5737 73.2002C73.6095 56.6482 91.2127 44.3717 111.157 37.9232C126.647 32.9149 143.01 31.5968 158.977 33.9886C166.6 35.1305 174.335 30.9409 176.44 23.5259Z" fill="#C3DBC9"/>
<path d="M143.441 19C143.441 11.268 149.727 4.92323 157.416 5.74078C183.256 8.48849 207.853 18.8129 228.096 35.5899C251.96 55.3692 268.296 82.8933 274.319 113.472C280.341 144.052 275.679 175.794 261.126 203.291C246.573 230.787 223.029 252.337 194.507 264.269C165.985 276.2 134.248 277.775 104.705 268.724C75.1623 259.673 49.6406 240.558 32.4889 214.634C15.3371 188.71 7.61653 157.582 10.6426 126.554C13.2072 100.257 23.3569 75.41 39.6824 55.023C44.5491 48.9455 53.554 48.9855 59.0323 54.518L59.5509 55.0418C64.9534 60.4978 64.8664 69.2383 60.2248 75.3547C48.3891 90.9509 41.0262 109.648 39.1013 129.385C36.7238 153.764 42.7899 178.221 56.266 198.589C69.7421 218.958 89.7945 233.977 113.006 241.088C136.218 248.199 161.154 246.962 183.564 237.587C205.974 228.213 224.472 211.281 235.906 189.677C247.341 168.072 251.004 143.133 246.272 119.107C241.539 95.0806 228.705 73.4549 209.954 57.9143C194.829 45.3788 176.61 37.4282 157.399 34.8221C149.738 33.7828 143.441 27.6118 143.441 19.8798V19Z" fill="#5A9E71"/>
<path d="M96.133 110.753C99.933 110.753 103.133 111.573 105.733 113.213C108.373 114.853 110.373 117.233 111.733 120.353C113.093 123.433 113.773 127.213 113.773 131.693C113.773 136.453 112.933 140.473 111.253 143.753C109.573 147.033 107.253 149.513 104.293 151.193C101.333 152.873 97.873 153.713 93.913 153.713C91.953 153.713 90.053 153.513 88.213 153.113C86.413 152.713 84.833 152.093 83.473 151.253L85.753 146.573C86.873 147.293 88.113 147.813 89.473 148.133C90.873 148.413 92.333 148.553 93.853 148.553C98.093 148.553 101.473 147.233 103.993 144.593C106.513 141.913 107.773 137.953 107.773 132.713C107.773 131.873 107.733 130.873 107.653 129.713C107.573 128.553 107.393 127.413 107.113 126.293L109.093 128.333C108.533 130.173 107.593 131.733 106.273 133.013C104.993 134.253 103.433 135.193 101.593 135.833C99.793 136.433 97.813 136.733 95.653 136.733C92.893 136.733 90.433 136.213 88.273 135.173C86.113 134.133 84.413 132.673 83.173 130.793C81.933 128.873 81.313 126.613 81.313 124.013C81.313 121.293 81.953 118.953 83.233 116.993C84.553 114.993 86.333 113.453 88.573 112.373C90.853 111.293 93.373 110.753 96.133 110.753ZM96.373 115.613C94.573 115.613 92.973 115.953 91.573 116.633C90.173 117.313 89.073 118.253 88.273 119.453C87.513 120.653 87.133 122.093 87.133 123.773C87.133 126.253 87.993 128.233 89.713 129.713C91.433 131.153 93.753 131.873 96.673 131.873C98.593 131.873 100.273 131.513 101.713 130.793C103.193 130.073 104.333 129.093 105.133 127.853C105.973 126.613 106.393 125.233 106.393 123.713C106.393 122.233 106.013 120.893 105.253 119.693C104.493 118.493 103.373 117.513 101.893 116.753C100.413 115.993 98.573 115.613 96.373 115.613ZM136.704 153.713C133.424 153.713 130.484 152.873 127.884 151.193C125.324 149.513 123.284 147.073 121.764 143.873C120.284 140.673 119.544 136.793 119.544 132.233C119.544 127.673 120.284 123.793 121.764 120.593C123.284 117.393 125.324 114.953 127.884 113.273C130.484 111.593 133.424 110.753 136.704 110.753C139.944 110.753 142.864 111.593 145.464 113.273C148.064 114.953 150.104 117.393 151.584 120.593C153.064 123.793 153.804 127.673 153.804 132.233C153.804 136.793 153.064 140.673 151.584 143.873C150.104 147.073 148.064 149.513 145.464 151.193C142.864 152.873 139.944 153.713 136.704 153.713ZM136.704 148.373C138.904 148.373 140.824 147.773 142.464 146.573C144.144 145.373 145.444 143.573 146.364 141.173C147.324 138.773 147.804 135.793 147.804 132.233C147.804 128.673 147.324 125.693 146.364 123.293C145.444 120.893 144.144 119.093 142.464 117.893C140.824 116.693 138.904 116.093 136.704 116.093C134.504 116.093 132.564 116.693 130.884 117.893C129.204 119.093 127.884 120.893 126.924 123.293C126.004 125.693 125.544 128.673 125.544 132.233C125.544 135.793 126.004 138.773 126.924 141.173C127.884 143.573 129.204 145.373 130.884 146.573C132.564 147.773 134.504 148.373 136.704 148.373ZM165.324 153.233L194.004 111.233H198.624L169.944 153.233H165.324ZM168.684 133.793C166.764 133.793 165.064 133.313 163.584 132.353C162.104 131.393 160.944 130.053 160.104 128.333C159.304 126.613 158.904 124.613 158.904 122.333C158.904 120.053 159.304 118.053 160.104 116.333C160.944 114.613 162.104 113.273 163.584 112.313C165.064 111.353 166.764 110.873 168.684 110.873C170.644 110.873 172.344 111.353 173.784 112.313C175.264 113.273 176.404 114.613 177.204 116.333C178.004 118.053 178.404 120.053 178.404 122.333C178.404 124.613 178.004 126.613 177.204 128.333C176.404 130.053 175.264 131.393 173.784 132.353C172.344 133.313 170.644 133.793 168.684 133.793ZM168.684 130.373C170.524 130.373 171.964 129.673 173.004 128.273C174.044 126.833 174.564 124.853 174.564 122.333C174.564 119.813 174.044 117.853 173.004 116.453C171.964 115.013 170.524 114.293 168.684 114.293C166.884 114.293 165.444 115.013 164.364 116.453C163.324 117.853 162.804 119.813 162.804 122.333C162.804 124.813 163.324 126.773 164.364 128.213C165.444 129.653 166.884 130.373 168.684 130.373ZM195.264 153.593C193.344 153.593 191.644 153.113 190.164 152.153C188.684 151.193 187.544 149.853 186.744 148.133C185.944 146.413 185.544 144.413 185.544 142.133C185.544 139.853 185.944 137.853 186.744 136.133C187.544 134.413 188.684 133.073 190.164 132.113C191.644 131.153 193.344 130.673 195.264 130.673C197.224 130.673 198.924 131.153 200.364 132.113C201.844 133.073 202.984 134.413 203.784 136.133C204.624 137.853 205.044 139.853 205.044 142.133C205.044 144.413 204.624 146.413 203.784 148.133C202.984 149.853 201.844 151.193 200.364 152.153C198.924 153.113 197.224 153.593 195.264 153.593ZM195.264 150.173C197.064 150.173 198.484 149.473 199.524 148.073C200.604 146.633 201.144 144.653 201.144 142.133C201.144 139.653 200.604 137.693 199.524 136.253C198.484 134.813 197.064 134.093 195.264 134.093C193.464 134.093 192.024 134.813 190.944 136.253C189.904 137.653 189.384 139.613 189.384 142.133C189.384 144.653 189.904 146.633 190.944 148.073C192.024 149.473 193.464 150.173 195.264 150.173Z" fill="#385B38"/>
<path d="M121.515 86.1083V73.3883H116.595V72.1083H127.915V73.3883H122.995V86.1083H121.515ZM133.165 86.2083C132.152 86.2083 131.239 85.9817 130.425 85.5283C129.625 85.0617 128.992 84.4283 128.525 83.6283C128.059 82.815 127.825 81.8883 127.825 80.8483C127.825 79.795 128.059 78.8683 128.525 78.0683C128.992 77.2683 129.625 76.6417 130.425 76.1883C131.225 75.735 132.139 75.5083 133.165 75.5083C134.205 75.5083 135.125 75.735 135.925 76.1883C136.739 76.6417 137.372 77.2683 137.825 78.0683C138.292 78.8683 138.525 79.795 138.525 80.8483C138.525 81.8883 138.292 82.815 137.825 83.6283C137.372 84.4283 136.739 85.0617 135.925 85.5283C135.112 85.9817 134.192 86.2083 133.165 86.2083ZM133.165 84.9483C133.925 84.9483 134.599 84.7817 135.185 84.4483C135.772 84.1017 136.232 83.6217 136.565 83.0083C136.912 82.3817 137.085 81.6617 137.085 80.8483C137.085 80.0217 136.912 79.3017 136.565 78.6883C136.232 78.075 135.772 77.6017 135.185 77.2683C134.599 76.9217 133.932 76.7483 133.185 76.7483C132.439 76.7483 131.772 76.9217 131.185 77.2683C130.599 77.6017 130.132 78.075 129.785 78.6883C129.439 79.3017 129.265 80.0217 129.265 80.8483C129.265 81.6617 129.439 82.3817 129.785 83.0083C130.132 83.6217 130.599 84.1017 131.185 84.4483C131.772 84.7817 132.432 84.9483 133.165 84.9483ZM144.744 86.2083C143.758 86.2083 142.998 85.9417 142.464 85.4083C141.931 84.875 141.664 84.1217 141.664 83.1483V73.2883H143.084V83.0683C143.084 83.6817 143.238 84.155 143.544 84.4883C143.864 84.8217 144.318 84.9883 144.904 84.9883C145.531 84.9883 146.051 84.8083 146.464 84.4483L146.964 85.4683C146.684 85.7217 146.344 85.9083 145.944 86.0283C145.558 86.1483 145.158 86.2083 144.744 86.2083ZM139.784 76.7883V75.6083H146.284V76.7883H139.784ZM156.129 86.1083V83.7883L156.069 83.4083V79.5283C156.069 78.635 155.816 77.9483 155.309 77.4683C154.816 76.9883 154.076 76.7483 153.089 76.7483C152.409 76.7483 151.763 76.8617 151.149 77.0883C150.536 77.315 150.016 77.615 149.589 77.9883L148.949 76.9283C149.483 76.475 150.123 76.1283 150.869 75.8883C151.616 75.635 152.403 75.5083 153.229 75.5083C154.589 75.5083 155.636 75.8483 156.369 76.5283C157.116 77.195 157.489 78.215 157.489 79.5883V86.1083H156.129ZM152.509 86.2083C151.723 86.2083 151.036 86.0817 150.449 85.8283C149.876 85.5617 149.436 85.2017 149.129 84.7483C148.823 84.2817 148.669 83.7483 148.669 83.1483C148.669 82.6017 148.796 82.1083 149.049 81.6683C149.316 81.215 149.743 80.855 150.329 80.5883C150.929 80.3083 151.729 80.1683 152.729 80.1683H156.349V81.2283H152.769C151.756 81.2283 151.049 81.4083 150.649 81.7683C150.263 82.1283 150.069 82.575 150.069 83.1083C150.069 83.7083 150.303 84.1883 150.769 84.5483C151.236 84.9083 151.889 85.0883 152.729 85.0883C153.529 85.0883 154.216 84.9083 154.789 84.5483C155.376 84.175 155.803 83.6417 156.069 82.9483L156.389 83.9283C156.123 84.6217 155.656 85.175 154.989 85.5883C154.336 86.0017 153.509 86.2083 152.509 86.2083ZM161.346 86.1083V71.2683H162.766V86.1083H161.346Z" fill="#132A58" fill-opacity="0.41"/>
<path d="M97.9158 200.224C97.0318 200.224 96.1818 200.083 95.3658 199.799C94.5611 199.505 93.9378 199.131 93.4958 198.677L93.9888 197.708C94.4081 198.116 94.9691 198.462 95.6718 198.745C96.3858 199.017 97.1338 199.153 97.9158 199.153C98.6638 199.153 99.2701 199.063 99.7348 198.881C100.211 198.689 100.556 198.434 100.772 198.116C100.998 197.799 101.112 197.448 101.112 197.062C101.112 196.598 100.976 196.224 100.704 195.94C100.443 195.657 100.097 195.436 99.6668 195.277C99.2361 195.107 98.7601 194.96 98.2388 194.835C97.7175 194.711 97.1961 194.58 96.6748 194.444C96.1535 194.297 95.6718 194.104 95.2298 193.866C94.7991 193.628 94.4478 193.317 94.1758 192.931C93.9151 192.535 93.7848 192.019 93.7848 191.384C93.7848 190.795 93.9378 190.257 94.2438 189.769C94.5611 189.271 95.0428 188.874 95.6888 188.579C96.3348 188.273 97.1621 188.12 98.1708 188.12C98.8395 188.12 99.5025 188.217 100.16 188.409C100.817 188.591 101.384 188.846 101.86 189.174L101.435 190.177C100.925 189.837 100.381 189.588 99.8028 189.429C99.2361 189.271 98.6865 189.191 98.1538 189.191C97.4398 189.191 96.8505 189.288 96.3858 189.48C95.9211 189.673 95.5755 189.934 95.3488 190.262C95.1335 190.58 95.0258 190.942 95.0258 191.35C95.0258 191.815 95.1561 192.189 95.4168 192.472C95.6888 192.756 96.0401 192.977 96.4708 193.135C96.9128 193.294 97.3945 193.436 97.9158 193.56C98.4371 193.685 98.9528 193.821 99.4628 193.968C99.9841 194.116 100.46 194.308 100.891 194.546C101.333 194.773 101.684 195.079 101.945 195.464C102.217 195.85 102.353 196.354 102.353 196.977C102.353 197.555 102.194 198.094 101.877 198.592C101.559 199.08 101.072 199.476 100.415 199.782C99.7688 200.077 98.9358 200.224 97.9158 200.224ZM110.432 200.122V198.15L110.381 197.827V194.529C110.381 193.77 110.165 193.186 109.735 192.778C109.315 192.37 108.686 192.166 107.848 192.166C107.27 192.166 106.72 192.263 106.199 192.455C105.677 192.648 105.235 192.903 104.873 193.22L104.329 192.319C104.782 191.934 105.326 191.639 105.961 191.435C106.595 191.22 107.264 191.112 107.967 191.112C109.123 191.112 110.012 191.401 110.636 191.979C111.27 192.546 111.588 193.413 111.588 194.58V200.122H110.432ZM107.355 200.207C106.686 200.207 106.102 200.1 105.604 199.884C105.116 199.658 104.742 199.352 104.482 198.966C104.221 198.57 104.091 198.116 104.091 197.606C104.091 197.142 104.198 196.722 104.414 196.348C104.64 195.963 105.003 195.657 105.502 195.43C106.012 195.192 106.692 195.073 107.542 195.073H110.619V195.974H107.576C106.714 195.974 106.114 196.127 105.774 196.433C105.445 196.739 105.281 197.119 105.281 197.572C105.281 198.082 105.479 198.49 105.876 198.796C106.272 199.102 106.828 199.255 107.542 199.255C108.222 199.255 108.805 199.102 109.293 198.796C109.791 198.479 110.154 198.026 110.381 197.436L110.653 198.269C110.426 198.859 110.029 199.329 109.463 199.68C108.907 200.032 108.205 200.207 107.355 200.207ZM119.422 191.112C120.147 191.112 120.782 191.254 121.326 191.537C121.881 191.809 122.312 192.229 122.618 192.795C122.935 193.362 123.094 194.076 123.094 194.937V200.122H121.887V195.056C121.887 194.116 121.649 193.407 121.173 192.931C120.708 192.444 120.051 192.2 119.201 192.2C118.566 192.2 118.011 192.331 117.535 192.591C117.07 192.841 116.708 193.209 116.447 193.696C116.198 194.172 116.073 194.75 116.073 195.43V200.122H114.866V191.197H116.022V193.645L115.835 193.186C116.118 192.54 116.572 192.036 117.195 191.673C117.818 191.299 118.561 191.112 119.422 191.112ZM130.162 203.505C129.346 203.505 128.564 203.386 127.816 203.148C127.068 202.91 126.462 202.57 125.997 202.128L126.609 201.21C127.029 201.584 127.544 201.879 128.156 202.094C128.78 202.321 129.437 202.434 130.128 202.434C131.262 202.434 132.095 202.168 132.627 201.635C133.16 201.114 133.426 200.298 133.426 199.187V196.96L133.596 195.43L133.477 193.9V191.197H134.633V199.034C134.633 200.576 134.254 201.703 133.494 202.417C132.746 203.143 131.636 203.505 130.162 203.505ZM129.941 199.782C129.091 199.782 128.326 199.601 127.646 199.238C126.966 198.864 126.428 198.349 126.031 197.691C125.646 197.034 125.453 196.28 125.453 195.43C125.453 194.58 125.646 193.832 126.031 193.186C126.428 192.529 126.966 192.019 127.646 191.656C128.326 191.294 129.091 191.112 129.941 191.112C130.735 191.112 131.449 191.277 132.083 191.605C132.718 191.934 133.222 192.421 133.596 193.067C133.97 193.713 134.157 194.501 134.157 195.43C134.157 196.36 133.97 197.147 133.596 197.793C133.222 198.439 132.718 198.932 132.083 199.272C131.449 199.612 130.735 199.782 129.941 199.782ZM130.06 198.711C130.718 198.711 131.301 198.575 131.811 198.303C132.321 198.02 132.724 197.635 133.018 197.147C133.313 196.649 133.46 196.076 133.46 195.43C133.46 194.784 133.313 194.218 133.018 193.73C132.724 193.243 132.321 192.863 131.811 192.591C131.301 192.308 130.718 192.166 130.06 192.166C129.414 192.166 128.831 192.308 128.309 192.591C127.799 192.863 127.397 193.243 127.102 193.73C126.819 194.218 126.677 194.784 126.677 195.43C126.677 196.076 126.819 196.649 127.102 197.147C127.397 197.635 127.799 198.02 128.309 198.303C128.831 198.575 129.414 198.711 130.06 198.711ZM143.585 200.122V198.15L143.534 197.827V194.529C143.534 193.77 143.319 193.186 142.888 192.778C142.469 192.37 141.84 192.166 141.001 192.166C140.423 192.166 139.873 192.263 139.352 192.455C138.831 192.648 138.389 192.903 138.026 193.22L137.482 192.319C137.935 191.934 138.479 191.639 139.114 191.435C139.749 191.22 140.417 191.112 141.12 191.112C142.276 191.112 143.166 191.401 143.789 191.979C144.424 192.546 144.741 193.413 144.741 194.58V200.122H143.585ZM140.508 200.207C139.839 200.207 139.256 200.1 138.757 199.884C138.27 199.658 137.896 199.352 137.635 198.966C137.374 198.57 137.244 198.116 137.244 197.606C137.244 197.142 137.352 196.722 137.567 196.348C137.794 195.963 138.156 195.657 138.655 195.43C139.165 195.192 139.845 195.073 140.695 195.073H143.772V195.974H140.729C139.868 195.974 139.267 196.127 138.927 196.433C138.598 196.739 138.434 197.119 138.434 197.572C138.434 198.082 138.632 198.49 139.029 198.796C139.426 199.102 139.981 199.255 140.695 199.255C141.375 199.255 141.959 199.102 142.446 198.796C142.945 198.479 143.307 198.026 143.534 197.436L143.806 198.269C143.579 198.859 143.183 199.329 142.616 199.68C142.061 200.032 141.358 200.207 140.508 200.207ZM150.841 200.207C150.003 200.207 149.357 199.981 148.903 199.527C148.45 199.074 148.223 198.434 148.223 197.606V189.225H149.43V197.538C149.43 198.06 149.561 198.462 149.821 198.745C150.093 199.029 150.479 199.17 150.977 199.17C151.51 199.17 151.952 199.017 152.303 198.711L152.728 199.578C152.49 199.794 152.201 199.952 151.861 200.054C151.533 200.156 151.193 200.207 150.841 200.207ZM146.625 192.2V191.197H152.15V192.2H146.625ZM159.63 200.122V188.222H164.764C166.09 188.222 167.116 188.489 167.841 189.021C168.578 189.554 168.946 190.308 168.946 191.282C168.946 191.928 168.793 192.472 168.487 192.914C168.192 193.356 167.784 193.691 167.263 193.917C166.753 194.144 166.192 194.257 165.58 194.257L165.869 193.849C166.628 193.849 167.28 193.968 167.824 194.206C168.379 194.433 168.81 194.779 169.116 195.243C169.422 195.697 169.575 196.263 169.575 196.943C169.575 197.952 169.201 198.734 168.453 199.289C167.716 199.845 166.6 200.122 165.104 200.122H159.63ZM160.888 199.085H165.087C166.13 199.085 166.929 198.91 167.484 198.558C168.039 198.196 168.317 197.623 168.317 196.841C168.317 196.071 168.039 195.51 167.484 195.158C166.929 194.796 166.13 194.614 165.087 194.614H160.752V193.577H164.679C165.631 193.577 166.368 193.396 166.889 193.033C167.422 192.671 167.688 192.132 167.688 191.418C167.688 190.693 167.422 190.155 166.889 189.803C166.368 189.441 165.631 189.259 164.679 189.259H160.888V199.085ZM177.784 200.122V198.15L177.733 197.827V194.529C177.733 193.77 177.518 193.186 177.087 192.778C176.668 192.37 176.039 192.166 175.2 192.166C174.622 192.166 174.073 192.263 173.551 192.455C173.03 192.648 172.588 192.903 172.225 193.22L171.681 192.319C172.135 191.934 172.679 191.639 173.313 191.435C173.948 191.22 174.617 191.112 175.319 191.112C176.475 191.112 177.365 191.401 177.988 191.979C178.623 192.546 178.94 193.413 178.94 194.58V200.122H177.784ZM174.707 200.207C174.039 200.207 173.455 200.1 172.956 199.884C172.469 199.658 172.095 199.352 171.834 198.966C171.574 198.57 171.443 198.116 171.443 197.606C171.443 197.142 171.551 196.722 171.766 196.348C171.993 195.963 172.356 195.657 172.854 195.43C173.364 195.192 174.044 195.073 174.894 195.073H177.971V195.974H174.928C174.067 195.974 173.466 196.127 173.126 196.433C172.798 196.739 172.633 197.119 172.633 197.572C172.633 198.082 172.832 198.49 173.228 198.796C173.625 199.102 174.18 199.255 174.894 199.255C175.574 199.255 176.158 199.102 176.645 198.796C177.144 198.479 177.507 198.026 177.733 197.436L178.005 198.269C177.779 198.859 177.382 199.329 176.815 199.68C176.26 200.032 175.557 200.207 174.707 200.207ZM182.219 200.122V191.197H183.426V200.122H182.219ZM182.831 189.225C182.581 189.225 182.372 189.14 182.202 188.97C182.032 188.8 181.947 188.596 181.947 188.358C181.947 188.12 182.032 187.922 182.202 187.763C182.372 187.593 182.581 187.508 182.831 187.508C183.08 187.508 183.29 187.588 183.46 187.746C183.63 187.905 183.715 188.103 183.715 188.341C183.715 188.591 183.63 188.8 183.46 188.97C183.301 189.14 183.091 189.225 182.831 189.225ZM187.736 197.81L187.77 196.263L193.329 191.197H194.808L190.881 194.954L190.201 195.532L187.736 197.81ZM186.784 200.122V187.508H187.991V200.122H186.784ZM193.703 200.122L189.98 195.481L190.762 194.546L195.182 200.122H193.703Z" fill="#111111"/>
</g>
<defs>
<filter id="filter0_d_260_438" x="0" y="0" width="286.883" height="289.527" filterUnits="userSpaceOnUse" color-interpolation-filters="sRGB">
<feFlood flood-opacity="0" result="BackgroundImageFix"/>
<feColorMatrix in="SourceAlpha" type="matrix" values="0 0 0 0 0 0 0 0 0 0 0 0 0 0 0 0 0 0 127 0" result="hardAlpha"/>
<feOffset dy="5"/>
<feGaussianBlur stdDeviation="5"/>
<feComposite in2="hardAlpha" operator="out"/>
<feColorMatrix type="matrix" values="0 0 0 0 0 0 0 0 0 0 0 0 0 0 0 0 0 0 0.25 0"/>
<feBlend mode="normal" in2="BackgroundImageFix" result="effect1_dropShadow_260_438"/>
<feBlend mode="normal" in="SourceGraphic" in2="effect1_dropShadow_260_438" result="shape"/>
</filter>
</defs>
</svg>
