<svg width="58" height="58" viewBox="0 0 58 58" fill="none" xmlns="http://www.w3.org/2000/svg">
<path d="M28.9997 4.83331C15.6838 4.83331 4.83301 15.6841 4.83301 29C4.83301 42.3158 15.6838 53.1666 28.9997 53.1666C42.3155 53.1666 53.1663 42.3158 53.1663 29C53.1663 15.6841 42.3155 4.83331 28.9997 4.83331ZM39.5122 37.6275C39.1738 38.2075 38.5697 38.5216 37.9413 38.5216C37.6272 38.5216 37.313 38.4491 37.023 38.2558L29.5313 33.785C27.6705 32.6733 26.293 30.2325 26.293 28.0816V18.1733C26.293 17.1825 27.1147 16.3608 28.1055 16.3608C29.0963 16.3608 29.918 17.1825 29.918 18.1733V28.0816C29.918 28.9516 30.643 30.2325 31.3922 30.6675L38.8838 35.1383C39.7538 35.6458 40.0438 36.7575 39.5122 37.6275Z" fill="#2293FC"/>
</svg>
