<svg width="124" height="127" viewBox="0 0 124 127" fill="none" xmlns="http://www.w3.org/2000/svg">
<path d="M36.8348 42.8917C36.2308 42.8855 35.6451 43.0988 35.1865 43.492C34.7279 43.8851 34.4277 44.4314 34.3415 45.0292C34.1491 46.3949 34.0514 47.7722 34.049 49.1514C34.049 64.2703 45.7639 76.6434 60.6435 77.8966V98.5738C60.6435 99.2351 60.9062 99.8692 61.3737 100.337C61.8413 100.804 62.4755 101.067 63.1367 101.067C63.798 101.067 64.4321 100.804 64.8997 100.337C65.3673 99.8692 65.63 99.2351 65.63 98.5738V77.8966C80.5096 76.6434 92.2245 64.267 92.2245 49.1481C92.2245 47.7518 92.1258 46.3778 91.9286 45.0259C91.8417 44.4287 91.5411 43.8832 91.0826 43.4907C90.6242 43.0983 90.0389 42.8854 89.4354 42.8917C83.8721 42.9386 78.4388 44.5782 73.7782 47.6163C69.1176 50.6544 65.4248 54.964 63.1367 60.0352C60.8484 54.9635 57.1551 50.6536 52.4939 47.6154C47.8326 44.5772 42.3985 42.938 36.8348 42.8917Z" fill="#00823B"/>
</svg>
