<svg width="24" height="24" viewBox="0 0 24 24" fill="none" xmlns="http://www.w3.org/2000/svg">
<path d="M18.6 22H5.4C5.08381 22 4.77075 21.9375 4.47878 21.8162C4.18681 21.6948 3.9217 21.517 3.69869 21.2928C3.47567 21.0687 3.29914 20.8027 3.17923 20.5101C3.05933 20.2176 2.99842 19.9042 3 19.588V8.33201C3 7.95001 3.18 7.59801 3.48 7.36701L11.26 2.24101C11.4674 2.08445 11.7202 1.99976 11.98 1.99976C12.2398 1.99976 12.4926 2.08445 12.7 2.24101L20.52 7.36701C20.82 7.59801 21 7.95001 21 8.33201V19.588C21.0016 19.9042 20.9407 20.2176 20.8208 20.5101C20.7009 20.8027 20.5243 21.0687 20.3013 21.2928C20.0783 21.517 19.8132 21.6948 19.5212 21.8162C19.2293 21.9375 18.9162 22 18.6 22Z" stroke="#FFFDFD" stroke-width="1.5" stroke-miterlimit="10" stroke-linejoin="round"/>
<path d="M9.8 12H14.2C14.64 12 15 12.36 15 12.8V22H9V12.8C9 12.36 9.36 12 9.8 12Z" stroke="#FFFDFD" stroke-width="1.5" stroke-miterlimit="10" stroke-linejoin="round"/>
</svg>
