<svg width="49" height="54" viewBox="0 0 49 54" fill="none" xmlns="http://www.w3.org/2000/svg">
<path d="M2 45.75C2 42.4348 3.18526 39.2554 5.29505 36.9112C7.40483 34.567 10.2663 33.25 13.25 33.25H35.75C38.7337 33.25 41.5952 34.567 43.7049 36.9112C45.8147 39.2554 47 42.4348 47 45.75C47 47.4076 46.4074 48.9973 45.3525 50.1694C44.2976 51.3415 42.8668 52 41.375 52H7.625C6.13316 52 4.70242 51.3415 3.64752 50.1694C2.59263 48.9973 2 47.4076 2 45.75Z" stroke="url(#paint0_linear_53_870)" stroke-width="4" stroke-linejoin="round"/>
<path d="M24.4375 20.75C29.0974 20.75 32.875 16.5527 32.875 11.375C32.875 6.19733 29.0974 2 24.4375 2C19.7776 2 16 6.19733 16 11.375C16 16.5527 19.7776 20.75 24.4375 20.75Z" stroke="url(#paint1_linear_53_870)" stroke-width="4"/>
<defs>
<linearGradient id="paint0_linear_53_870" x1="24.5" y1="33.25" x2="24.5" y2="52" gradientUnits="userSpaceOnUse">
<stop stop-color="#343B2D"/>
<stop offset="1" stop-color="#799F7C"/>
</linearGradient>
<linearGradient id="paint1_linear_53_870" x1="24.4375" y1="2" x2="24.4375" y2="20.75" gradientUnits="userSpaceOnUse">
<stop stop-color="#343B2D"/>
<stop offset="1" stop-color="#799F7C"/>
</linearGradient>
</defs>
</svg>
