<svg width="981" height="693" viewBox="0 0 981 693" fill="none" xmlns="http://www.w3.org/2000/svg">
<path fill-rule="evenodd" clip-rule="evenodd" d="M952.48 207.82C968.87 211.546 980.5 226.117 980.5 242.925V656.113C980.5 675.996 964.382 692.113 944.5 692.113H913.882C894 692.113 877.882 675.996 877.882 656.113V635.138C877.882 615.256 861.764 599.138 841.882 599.138H139.117C119.235 599.138 103.117 615.256 103.117 635.138V656.113C103.117 675.996 86.9994 692.113 67.1172 692.113H36.5C16.6177 692.113 0.5 675.996 0.5 656.113V36.5154C0.5 13.4128 21.9521 -3.71012 44.48 1.41099L952.48 207.82Z" fill="#F5E9DB"/>
<path d="M44.48 1.41099L44.3692 1.89855L44.48 1.41099ZM952.48 207.82L952.591 207.333L952.48 207.82ZM980.5 242.925H980V656.114H980.5H981V242.925H980.5ZM944.5 692.113V691.613H913.882V692.113V692.613H944.5V692.113ZM877.882 656.113H878.382V635.138H877.882H877.382V656.113H877.882ZM841.882 599.138V598.638H139.117V599.138V599.638H841.882V599.138ZM103.117 635.138H102.617V656.113H103.117H103.617V635.138H103.117ZM67.1172 692.113V691.613H36.5V692.113V692.613H67.1172V692.113ZM0.5 656.113H1V36.5154H0.5H0V656.113H0.5ZM44.48 1.41099L44.3692 1.89855L952.369 208.308L952.48 207.82L952.591 207.333L44.5909 0.923425L44.48 1.41099ZM0.5 36.5154H1C1 13.7336 22.1542 -3.15143 44.3692 1.89855L44.48 1.41099L44.5909 0.923425C21.7501 -4.26881 0 13.0919 0 36.5154H0.5ZM36.5 692.113V691.613C16.8939 691.613 1 675.72 1 656.113H0.5H0C0 676.272 16.3416 692.613 36.5 692.613V692.113ZM103.117 656.113H102.617C102.617 675.72 86.7233 691.613 67.1172 691.613V692.113V692.613C87.2756 692.613 103.617 676.272 103.617 656.113H103.117ZM139.117 599.138V598.638C118.959 598.638 102.617 614.98 102.617 635.138H103.117H103.617C103.617 615.532 119.511 599.638 139.117 599.638V599.138ZM877.882 635.138H878.382C878.382 614.98 862.04 598.638 841.882 598.638V599.138V599.638C861.488 599.638 877.382 615.532 877.382 635.138H877.882ZM913.882 692.113V691.613C894.276 691.613 878.382 675.72 878.382 656.113H877.882H877.382C877.382 676.272 893.723 692.613 913.882 692.613V692.113ZM980.5 656.114H980C980 675.72 964.106 691.613 944.5 691.613V692.113V692.613C964.658 692.613 981 676.272 981 656.114H980.5ZM980.5 242.925H981C981 225.883 969.208 211.11 952.591 207.333L952.48 207.82L952.369 208.308C968.531 211.982 980 226.35 980 242.925H980.5Z" fill="#2C2C2C"/>
</svg>
