<svg width="981" height="693" viewBox="0 0 981 693" fill="none" xmlns="http://www.w3.org/2000/svg">
<path fill-rule="evenodd" clip-rule="evenodd" d="M28.5199 207.822C12.1304 211.548 0.5 226.119 0.5 242.926V656.119C0.5 676.002 16.6177 692.119 36.5 692.119H67.1182C87.0004 692.119 103.118 676.002 103.118 656.119V635.143C103.118 615.26 119.236 599.143 139.118 599.143H841.883C861.765 599.143 877.883 615.26 877.883 635.143V656.119C877.883 676.002 894.001 692.119 913.883 692.119H944.5C964.382 692.119 980.5 676.002 980.5 656.119V36.5153C980.5 13.4127 959.048 -3.71015 936.52 1.41101L28.5199 207.822Z" fill="#FCF4EA"/>
<path d="M28.5199 207.822L28.6307 208.309L28.5199 207.822ZM0.5 242.926H1V656.119H0.5H0V242.926H0.5ZM36.5 692.119V691.619H67.1182V692.119V692.619H36.5V692.119ZM103.118 656.119H102.618V635.143H103.118H103.618V656.119H103.118ZM139.118 599.143V598.643H841.883V599.143V599.643H139.118V599.143ZM877.883 635.143H878.383V656.119H877.883H877.383V635.143H877.883ZM913.883 692.119V691.619H944.5V692.119V692.619H913.883V692.119ZM980.5 656.119H980V36.5153H980.5H981V656.119H980.5ZM936.52 1.41101L936.631 1.89857L28.6307 208.309L28.5199 207.822L28.4091 207.334L936.409 0.923444L936.52 1.41101ZM980.5 36.5153H980C980 13.7335 958.846 -3.15146 936.631 1.89857L936.52 1.41101L936.409 0.923444C959.25 -4.26884 981 13.0918 981 36.5153H980.5ZM944.5 692.119V691.619C964.106 691.619 980 675.725 980 656.119H980.5H981C981 676.278 964.658 692.619 944.5 692.619V692.119ZM877.883 656.119H878.383C878.383 675.725 894.277 691.619 913.883 691.619V692.119V692.619C893.724 692.619 877.383 676.278 877.383 656.119H877.883ZM841.883 599.143V598.643C862.041 598.643 878.383 614.984 878.383 635.143H877.883H877.383C877.383 615.537 861.489 599.643 841.883 599.643V599.143ZM103.118 635.143H102.618C102.618 614.984 118.96 598.643 139.118 598.643V599.143V599.643C119.512 599.643 103.618 615.537 103.618 635.143H103.118ZM67.1182 692.119V691.619C86.7243 691.619 102.618 675.725 102.618 656.119H103.118H103.618C103.618 676.278 87.2766 692.619 67.1182 692.619V692.119ZM0.5 656.119H1C1 675.725 16.8939 691.619 36.5 691.619V692.119V692.619C16.3416 692.619 0 676.278 0 656.119H0.5ZM0.5 242.926H0C0 225.885 11.7919 211.112 28.4091 207.334L28.5199 207.822L28.6307 208.309C12.4688 211.984 1 226.352 1 242.926H0.5Z" fill="black"/>
</svg>
